<?xml version="1.0" standalone="no"?>
<!DOCTYPE svg PUBLIC "-//W3C//DTD SVG 20010904//EN"
 "http://www.w3.org/TR/2001/REC-SVG-20010904/DTD/svg10.dtd">
<svg version="1.0" xmlns="http://www.w3.org/2000/svg"
 width="512.000000pt" height="512.000000pt" viewBox="0 0 512.000000 512.000000"
 preserveAspectRatio="xMidYMid meet">
<metadata>
Created by potrace 1.11, written by Peter Selinger 2001-2013
</metadata>
<g transform="translate(0.000000,512.000000) scale(0.100000,-0.100000)"
fill="#000000" stroke="none">
<path d="M2390 4800 c-434 -34 -859 -197 -1199 -461 -465 -359 -766 -874 -857
-1469 -22 -141 -25 -469 -5 -610 7 -52 15 -117 17 -145 11 -113 99 -401 176
-570 317 -697 986 -1191 1746 -1289 160 -21 424 -21 584 0 762 98 1429 591
1746 1289 77 169 165 457 176 570 2 28 10 93 17 145 20 141 17 469 -5 610 -51
331 -171 651 -343 915 -355 543 -931 908 -1573 999 -137 19 -348 26 -480 16z
m1111 -874 c19 -8 116 -97 221 -203 165 -166 189 -194 199 -235 24 -88 10
-110 -194 -317 -224 -226 -264 -248 -362 -202 -49 23 -399 373 -415 414 -14
40 -13 92 5 135 21 48 345 375 400 402 47 24 100 26 146 6z m-859 -163 c67
-31 137 -99 165 -161 12 -29 23 -57 23 -62 0 -6 -67 -10 -171 -10 l-171 0 -29
-29 c-49 -49 -35 -128 28 -160 13 -7 82 -11 177 -11 86 0 156 -4 156 -8 0 -23
-71 -120 -108 -149 -83 -63 -141 -73 -436 -73 -147 0 -277 -5 -298 -10 -95
-27 -122 -160 -44 -222 19 -16 66 -18 583 -18 614 0 638 -2 774 -59 217 -91
368 -279 441 -549 30 -113 30 -323 0 -447 -75 -301 -283 -513 -577 -587 -85
-22 -109 -23 -435 -23 -332 0 -347 1 -390 21 -110 53 -175 126 -206 233 -49
165 26 330 184 408 l57 28 310 5 c283 5 313 7 342 24 17 11 37 30 45 44 18 35
14 99 -9 130 -41 55 -26 54 -593 47 -498 -6 -530 -5 -625 14 -126 25 -173 41
-260 93 -145 86 -275 254 -334 433 -109 327 -44 668 168 888 79 83 161 137
261 176 145 56 182 60 570 58 341 -2 357 -3 402 -24z"/>
<path d="M3362 3571 c-73 -46 -92 -140 -43 -209 31 -44 100 -68 150 -53 47 14
98 68 106 114 9 44 -19 112 -57 139 -44 30 -114 35 -156 9z"/>
<path d="M2164 3656 c-47 -21 -74 -61 -74 -113 0 -38 5 -50 34 -79 26 -26 42
-34 70 -34 75 0 126 51 126 124 0 39 -37 91 -73 101 -47 14 -53 14 -83 1z"/>
</g>
</svg>
